# Blender v2.79 (sub 0) OBJ File: 'Exit Sign.blend'
# www.blender.org
mtllib Exit Sign.mtl
o Plane.001
v 0.130005 6.190174 4.794374
v 0.182296 0.382257 4.794374
v 0.130005 6.190174 -4.658986
v 0.182296 0.382257 -4.658986
vt 0.000070 0.999931
vt 0.000070 0.000071
vt 1.004501 0.000069
vt 1.008502 0.999930
vn 1.0000 0.0090 0.0000
usemtl Material.001
s off
f 1/1/1 2/2/1 4/3/1 3/4/1
o Plane
v 0.355400 0.395076 4.772065
v 0.347566 6.173275 4.772065
v 0.355400 0.395076 -4.671757
v 0.347566 6.173275 -4.671757
vn -1.0000 -0.0014 0.0000
usemtl Material.002
s off
f 5//2 6//2 8//2 7//2
o Cube
v 0.360759 0.372458 -4.689344
v 0.360759 0.372458 4.801050
v -0.360759 0.064178 5.303308
v -0.360758 0.064178 -5.191606
v 0.360759 6.197516 -4.689342
v 0.360758 6.197516 4.801053
v -0.360759 6.505795 5.303307
v -0.360759 6.505795 -5.191604
v 0.360759 0.064178 -5.191604
v 0.360759 0.064178 5.303309
v 0.360759 6.505795 -5.191601
v 0.360758 6.505795 5.303312
v 0.079993 0.372458 -4.689344
v 0.079993 0.372458 4.801050
v 0.079993 6.197516 -4.689342
v 0.079993 6.197516 4.801053
vn 0.0000 -1.0000 -0.0000
vn 0.0000 1.0000 -0.0000
vn 0.0000 0.0000 -1.0000
vn -0.0000 -0.0000 1.0000
vn -1.0000 -0.0000 -0.0000
vn 1.0000 0.0000 -0.0000
usemtl Material
s off
f 17//3 18//3 11//3 12//3
f 19//4 16//4 15//4 20//4
f 14//5 10//5 22//5 24//5
f 18//6 20//6 15//6 11//6
f 11//7 15//7 16//7 12//7
f 19//5 17//5 12//5 16//5
f 9//8 10//8 18//8 17//8
f 13//8 9//8 17//8 19//8
f 10//8 14//8 20//8 18//8
f 14//8 13//8 19//8 20//8
f 21//8 23//8 24//8 22//8
f 10//4 9//4 21//4 22//4
f 13//3 14//3 24//3 23//3
f 9//6 13//6 23//6 21//6
